<?xml version="1.0" encoding="utf-8"?>
<!-- Generator: Adobe Illustrator 19.2.1, SVG Export Plug-In . SVG Version: 6.00 Build 0)  -->
<svg version="1.1" id="Layer_1" xmlns="http://www.w3.org/2000/svg" xmlns:xlink="http://www.w3.org/1999/xlink" x="0px" y="0px"
	 viewBox="0 0 22.1 22.1" style="enable-background:new 0 0 22.1 22.1;" xml:space="preserve">
<style type="text/css">
	.st0{fill:#676767;}
	.st1{fill:#FFFFFF;}
</style>
<circle class="st0" cx="11" cy="11" r="11"/>
<path class="st1" d="M12.6,16l-0.4,1.4c-0.7,0.2-1.9,0.6-3,0.6C8.5,18,8,17.8,8,17.1c0-0.2,0-0.3,0.1-0.5l2-6.7H8.7l0.4-1.5l4.2-0.6
	h0.2L11,16H12.6z M12.3,6.8c-0.9,0-1.4-0.5-1.4-1.3c0-1,0.8-1.5,1.7-1.5C13.4,4,14,4.5,14,5.3C14,6.3,13.2,6.8,12.3,6.8z"/>
</svg>
