<?xml version="1.0" encoding="utf-8"?>
<!-- Generator: Adobe Illustrator 19.2.1, SVG Export Plug-In . SVG Version: 6.00 Build 0)  -->
<svg version="1.1" id="Layer_1" xmlns="http://www.w3.org/2000/svg" xmlns:xlink="http://www.w3.org/1999/xlink" x="0px" y="0px"
	 viewBox="0 0 348 440.6" style="enable-background:new 0 0 348 440.6;" xml:space="preserve">
<style type="text/css">
	.st0{fill:#333333;}
</style>
<g>
	<g>
		<path class="st0" d="M319.6,435.7L211.1,134.4h-5.3l-60.1,167H45.2V4.9L89,4.4V0H0v4.4l39.4,0.4v296.5L0,301.8v4.4h143.9
			L97.3,435.7l-28.4,0.4v4.4h74v-4.4l-39.9-0.4l35.4-98.5h139.1l35.4,98.5l-39.9,0.4v4.4H348v-4.4L319.6,435.7z M139.8,332.3
			l9.4-26.1h57.2l3.1-64.1h-4.4l-4,59.2H151l57-157.7h0.4l67.8,188.7H139.8z"/>
	</g>
</g>
</svg>
